<?xml version="1.0" standalone="no"?>
<!DOCTYPE svg PUBLIC "-//W3C//DTD SVG 20010904//EN"
 "http://www.w3.org/TR/2001/REC-SVG-20010904/DTD/svg10.dtd">
<svg version="1.0" xmlns="http://www.w3.org/2000/svg"
 width="512.000000pt" height="512.000000pt" viewBox="0 0 512.000000 512.000000"
 preserveAspectRatio="xMidYMid meet">
<metadata>
Created by potrace 1.14, written by Peter Selinger 2001-2017
</metadata>
<g transform="translate(0.000000,512.000000) scale(0.100000,-0.100000)"
fill="#000000" stroke="none">
<path d="M2550 4935 l0 -35 -961 0 c-528 0 -963 -1 -967 -4 -4 -2 -27 -7 -52
-11 -25 -4 -70 -19 -100 -33 -30 -14 -58 -24 -62 -24 -5 1 -8 -2 -8 -8 0 -5
-6 -10 -12 -11 -23 -1 -127 -130 -160 -197 l-33 -67 -3 -987 -2 -988 -40 0
c-29 0 -40 -4 -40 -15 0 -11 11 -15 40 -15 l40 0 0 -947 c0 -998 2 -1028 45
-1115 57 -111 148 -189 276 -236 l74 -27 983 -3 982 -3 0 -49 c0 -43 3 -50 20
-50 17 0 20 7 20 50 l0 50 910 0 910 0 0 80 c0 69 2 80 18 80 9 0 27 3 39 6
22 6 22 3 25 -82 l3 -89 30 -3 c37 -5 92 12 173 51 76 37 152 115 191 196 l26
56 5 1010 5 1010 40 5 c27 3 40 10 40 20 0 10 -13 17 -40 20 l-40 5 -5 1020
-5 1020 -23 49 c-12 27 -38 69 -58 93 -36 44 -152 130 -168 125 -4 -2 -13 1
-20 6 -6 5 -41 12 -78 16 l-68 7 0 -81 0 -81 -47 3 -48 3 -3 73 -3 72 -532 1
c-293 0 -702 0 -909 -1 l-378 -1 0 36 c0 24 -4 35 -15 35 -10 0 -15 -11 -15
-35z"/>
</g>
</svg>
